<svg xmlns="http://www.w3.org/2000/svg" viewBox="0 0 800 600" width="800" height="600">
<defs>
  <linearGradient id="bg" x1="0" y1="0" x2="1" y2="1"><stop offset="0" stop-color="#6b7461"/><stop offset="1" stop-color="#3d4638"/></linearGradient>
  <radialGradient id="leaf" cx="0.35" cy="0.3" r="0.9"><stop offset="0" stop-color="#6fae4f"/><stop offset="0.55" stop-color="#3f8a3b"/><stop offset="1" stop-color="#245f2a"/></radialGradient>
  <radialGradient id="leaf2" cx="0.4" cy="0.35" r="0.9"><stop offset="0" stop-color="#8cc46a"/><stop offset="0.6" stop-color="#4f9a45"/><stop offset="1" stop-color="#2b6b30"/></radialGradient>
  <radialGradient id="spot" cx="0.5" cy="0.5" r="0.5"><stop offset="0" stop-color="#3b2314"/><stop offset="0.35" stop-color="#7a4a1f"/><stop offset="0.55" stop-color="#a8702f"/><stop offset="0.75" stop-color="#6d3f19"/><stop offset="0.9" stop-color="#c9b04a"/><stop offset="1" stop-color="#c9b04a" stop-opacity="0"/></radialGradient>
  <radialGradient id="halo" cx="0.5" cy="0.5" r="0.5"><stop offset="0.6" stop-color="#d9c85a" stop-opacity="0"/><stop offset="0.8" stop-color="#d9c85a" stop-opacity="0.75"/><stop offset="1" stop-color="#d9c85a" stop-opacity="0"/></radialGradient>
  <radialGradient id="wet" cx="0.5" cy="0.5" r="0.5"><stop offset="0" stop-color="#2c2a1c"/><stop offset="0.5" stop-color="#4c4a2d"/><stop offset="0.8" stop-color="#7a7a55" stop-opacity="0.8"/><stop offset="1" stop-color="#7a7a55" stop-opacity="0"/></radialGradient>
  <radialGradient id="powder" cx="0.5" cy="0.5" r="0.5"><stop offset="0" stop-color="#ffffff" stop-opacity="0.95"/><stop offset="0.6" stop-color="#f1f1e6" stop-opacity="0.7"/><stop offset="1" stop-color="#ffffff" stop-opacity="0"/></radialGradient>
  <radialGradient id="purple" cx="0.5" cy="0.5" r="0.5"><stop offset="0" stop-color="#4a1f4f"/><stop offset="0.6" stop-color="#7a3d7a"/><stop offset="1" stop-color="#7a3d7a" stop-opacity="0"/></radialGradient>
  <filter id="soft" x="-20%" y="-20%" width="140%" height="140%"><feGaussianBlur stdDeviation="1.2"/></filter>
  <filter id="shadow" x="-20%" y="-20%" width="140%" height="140%"><feDropShadow dx="0" dy="18" stdDeviation="16" flood-color="#1b2a18" flood-opacity="0.35"/></filter>
  <filter id="blur" x="-10%" y="-10%" width="120%" height="120%"><feGaussianBlur stdDeviation="5"/></filter>
  <filter id="grain"><feTurbulence type="fractalNoise" baseFrequency="0.9" numOctaves="2" stitchTiles="stitch"/><feColorMatrix type="saturate" values="0"/><feComponentTransfer><feFuncA type="table" tableValues="0 0.08"/></feComponentTransfer></filter>
  
</defs>
<rect width="800" height="600" fill="url(#bg)"/>
<ellipse cx="400" cy="560" rx="360" ry="40" fill="#1b2a18" opacity="0.12"/><g filter="url(#blur)" opacity="0.85"><g filter="url(#shadow)" >
    <path d="M120 470 C 260 420, 420 330, 640 160" stroke="#3a6b2e" stroke-width="10" fill="none" stroke-linecap="round"/>
    <g transform="translate(150 455) rotate(-30) scale(0.95)">
    <path d="M0 0 C 40 -70, 120 -80, 150 -20 C 160 10, 130 60, 80 80 C 40 95, 10 60, 0 0 Z" fill="url(#leaf)" stroke="#1f4d24" stroke-width="2"/>
    <path d="M0 0 C 50 10, 100 20, 140 10" stroke="#1f4d24" stroke-width="2.2" fill="none" opacity="0.75"/>
    <path d="M35 2.5 C 45 -17.5, 55 -20, 60 -26.25" stroke="#1f4d24" stroke-width="1.3" fill="none" opacity="0.5"/><path d="M35 2.5 C 40 20, 45 22.5, 50 23.75" stroke="#1f4d24" stroke-width="1.3" fill="none" opacity="0.5"/><path d="M63 4.5 C 73 -23.5, 83 -28, 88 -35.25" stroke="#1f4d24" stroke-width="1.3" fill="none" opacity="0.5"/><path d="M63 4.5 C 68 28, 73 32.5, 78 34.75" stroke="#1f4d24" stroke-width="1.3" fill="none" opacity="0.5"/><path d="M91 6.5 C 101 -29.5, 111 -36, 116 -44.25" stroke="#1f4d24" stroke-width="1.3" fill="none" opacity="0.5"/><path d="M91 6.5 C 96 36, 101 42.5, 106 45.75" stroke="#1f4d24" stroke-width="1.3" fill="none" opacity="0.5"/><path d="M119 8.5 C 129 -35.5, 139 -44, 144 -53.25" stroke="#1f4d24" stroke-width="1.3" fill="none" opacity="0.5"/><path d="M119 8.5 C 124 44, 129 52.5, 134 56.75" stroke="#1f4d24" stroke-width="1.3" fill="none" opacity="0.5"/>
    <path d="M10 -6 C 50 -60, 110 -70, 140 -25" stroke="#fff" stroke-width="6" fill="none" opacity="0.08" filter="url(#soft)"/>
  </g>
    <g transform="translate(300 400) rotate(20) scale(1.05)">
    <path d="M0 0 C 40 -70, 120 -80, 150 -20 C 160 10, 130 60, 80 80 C 40 95, 10 60, 0 0 Z" fill="url(#leaf2)" stroke="#1f4d24" stroke-width="2"/>
    <path d="M0 0 C 50 10, 100 20, 140 10" stroke="#1f4d24" stroke-width="2.2" fill="none" opacity="0.75"/>
    <path d="M35 2.5 C 45 -17.5, 55 -20, 60 -26.25" stroke="#1f4d24" stroke-width="1.3" fill="none" opacity="0.5"/><path d="M35 2.5 C 40 20, 45 22.5, 50 23.75" stroke="#1f4d24" stroke-width="1.3" fill="none" opacity="0.5"/><path d="M63 4.5 C 73 -23.5, 83 -28, 88 -35.25" stroke="#1f4d24" stroke-width="1.3" fill="none" opacity="0.5"/><path d="M63 4.5 C 68 28, 73 32.5, 78 34.75" stroke="#1f4d24" stroke-width="1.3" fill="none" opacity="0.5"/><path d="M91 6.5 C 101 -29.5, 111 -36, 116 -44.25" stroke="#1f4d24" stroke-width="1.3" fill="none" opacity="0.5"/><path d="M91 6.5 C 96 36, 101 42.5, 106 45.75" stroke="#1f4d24" stroke-width="1.3" fill="none" opacity="0.5"/><path d="M119 8.5 C 129 -35.5, 139 -44, 144 -53.25" stroke="#1f4d24" stroke-width="1.3" fill="none" opacity="0.5"/><path d="M119 8.5 C 124 44, 129 52.5, 134 56.75" stroke="#1f4d24" stroke-width="1.3" fill="none" opacity="0.5"/>
    <path d="M10 -6 C 50 -60, 110 -70, 140 -25" stroke="#fff" stroke-width="6" fill="none" opacity="0.08" filter="url(#soft)"/>
  </g>
    <g transform="translate(330 360) rotate(-60) scale(0.9)">
    <path d="M0 0 C 40 -70, 120 -80, 150 -20 C 160 10, 130 60, 80 80 C 40 95, 10 60, 0 0 Z" fill="url(#leaf)" stroke="#1f4d24" stroke-width="2"/>
    <path d="M0 0 C 50 10, 100 20, 140 10" stroke="#1f4d24" stroke-width="2.2" fill="none" opacity="0.75"/>
    <path d="M35 2.5 C 45 -17.5, 55 -20, 60 -26.25" stroke="#1f4d24" stroke-width="1.3" fill="none" opacity="0.5"/><path d="M35 2.5 C 40 20, 45 22.5, 50 23.75" stroke="#1f4d24" stroke-width="1.3" fill="none" opacity="0.5"/><path d="M63 4.5 C 73 -23.5, 83 -28, 88 -35.25" stroke="#1f4d24" stroke-width="1.3" fill="none" opacity="0.5"/><path d="M63 4.5 C 68 28, 73 32.5, 78 34.75" stroke="#1f4d24" stroke-width="1.3" fill="none" opacity="0.5"/><path d="M91 6.5 C 101 -29.5, 111 -36, 116 -44.25" stroke="#1f4d24" stroke-width="1.3" fill="none" opacity="0.5"/><path d="M91 6.5 C 96 36, 101 42.5, 106 45.75" stroke="#1f4d24" stroke-width="1.3" fill="none" opacity="0.5"/><path d="M119 8.5 C 129 -35.5, 139 -44, 144 -53.25" stroke="#1f4d24" stroke-width="1.3" fill="none" opacity="0.5"/><path d="M119 8.5 C 124 44, 129 52.5, 134 56.75" stroke="#1f4d24" stroke-width="1.3" fill="none" opacity="0.5"/>
    <path d="M10 -6 C 50 -60, 110 -70, 140 -25" stroke="#fff" stroke-width="6" fill="none" opacity="0.08" filter="url(#soft)"/>
  </g>
    <g transform="translate(470 290) rotate(30) scale(1)">
    <path d="M0 0 C 40 -70, 120 -80, 150 -20 C 160 10, 130 60, 80 80 C 40 95, 10 60, 0 0 Z" fill="url(#leaf2)" stroke="#1f4d24" stroke-width="2"/>
    <path d="M0 0 C 50 10, 100 20, 140 10" stroke="#1f4d24" stroke-width="2.2" fill="none" opacity="0.75"/>
    <path d="M35 2.5 C 45 -17.5, 55 -20, 60 -26.25" stroke="#1f4d24" stroke-width="1.3" fill="none" opacity="0.5"/><path d="M35 2.5 C 40 20, 45 22.5, 50 23.75" stroke="#1f4d24" stroke-width="1.3" fill="none" opacity="0.5"/><path d="M63 4.5 C 73 -23.5, 83 -28, 88 -35.25" stroke="#1f4d24" stroke-width="1.3" fill="none" opacity="0.5"/><path d="M63 4.5 C 68 28, 73 32.5, 78 34.75" stroke="#1f4d24" stroke-width="1.3" fill="none" opacity="0.5"/><path d="M91 6.5 C 101 -29.5, 111 -36, 116 -44.25" stroke="#1f4d24" stroke-width="1.3" fill="none" opacity="0.5"/><path d="M91 6.5 C 96 36, 101 42.5, 106 45.75" stroke="#1f4d24" stroke-width="1.3" fill="none" opacity="0.5"/><path d="M119 8.5 C 129 -35.5, 139 -44, 144 -53.25" stroke="#1f4d24" stroke-width="1.3" fill="none" opacity="0.5"/><path d="M119 8.5 C 124 44, 129 52.5, 134 56.75" stroke="#1f4d24" stroke-width="1.3" fill="none" opacity="0.5"/>
    <path d="M10 -6 C 50 -60, 110 -70, 140 -25" stroke="#fff" stroke-width="6" fill="none" opacity="0.08" filter="url(#soft)"/>
  </g>
    <g transform="translate(500 250) rotate(-55) scale(0.95)">
    <path d="M0 0 C 40 -70, 120 -80, 150 -20 C 160 10, 130 60, 80 80 C 40 95, 10 60, 0 0 Z" fill="url(#leaf)" stroke="#1f4d24" stroke-width="2"/>
    <path d="M0 0 C 50 10, 100 20, 140 10" stroke="#1f4d24" stroke-width="2.2" fill="none" opacity="0.75"/>
    <path d="M35 2.5 C 45 -17.5, 55 -20, 60 -26.25" stroke="#1f4d24" stroke-width="1.3" fill="none" opacity="0.5"/><path d="M35 2.5 C 40 20, 45 22.5, 50 23.75" stroke="#1f4d24" stroke-width="1.3" fill="none" opacity="0.5"/><path d="M63 4.5 C 73 -23.5, 83 -28, 88 -35.25" stroke="#1f4d24" stroke-width="1.3" fill="none" opacity="0.5"/><path d="M63 4.5 C 68 28, 73 32.5, 78 34.75" stroke="#1f4d24" stroke-width="1.3" fill="none" opacity="0.5"/><path d="M91 6.5 C 101 -29.5, 111 -36, 116 -44.25" stroke="#1f4d24" stroke-width="1.3" fill="none" opacity="0.5"/><path d="M91 6.5 C 96 36, 101 42.5, 106 45.75" stroke="#1f4d24" stroke-width="1.3" fill="none" opacity="0.5"/><path d="M119 8.5 C 129 -35.5, 139 -44, 144 -53.25" stroke="#1f4d24" stroke-width="1.3" fill="none" opacity="0.5"/><path d="M119 8.5 C 124 44, 129 52.5, 134 56.75" stroke="#1f4d24" stroke-width="1.3" fill="none" opacity="0.5"/>
    <path d="M10 -6 C 50 -60, 110 -70, 140 -25" stroke="#fff" stroke-width="6" fill="none" opacity="0.08" filter="url(#soft)"/>
  </g>
    <g transform="translate(610 160) rotate(-20) scale(1.1)">
    <path d="M0 0 C 40 -70, 120 -80, 150 -20 C 160 10, 130 60, 80 80 C 40 95, 10 60, 0 0 Z" fill="url(#leaf)" stroke="#1f4d24" stroke-width="2"/>
    <path d="M0 0 C 50 10, 100 20, 140 10" stroke="#1f4d24" stroke-width="2.2" fill="none" opacity="0.75"/>
    <path d="M35 2.5 C 45 -17.5, 55 -20, 60 -26.25" stroke="#1f4d24" stroke-width="1.3" fill="none" opacity="0.5"/><path d="M35 2.5 C 40 20, 45 22.5, 50 23.75" stroke="#1f4d24" stroke-width="1.3" fill="none" opacity="0.5"/><path d="M63 4.5 C 73 -23.5, 83 -28, 88 -35.25" stroke="#1f4d24" stroke-width="1.3" fill="none" opacity="0.5"/><path d="M63 4.5 C 68 28, 73 32.5, 78 34.75" stroke="#1f4d24" stroke-width="1.3" fill="none" opacity="0.5"/><path d="M91 6.5 C 101 -29.5, 111 -36, 116 -44.25" stroke="#1f4d24" stroke-width="1.3" fill="none" opacity="0.5"/><path d="M91 6.5 C 96 36, 101 42.5, 106 45.75" stroke="#1f4d24" stroke-width="1.3" fill="none" opacity="0.5"/><path d="M119 8.5 C 129 -35.5, 139 -44, 144 -53.25" stroke="#1f4d24" stroke-width="1.3" fill="none" opacity="0.5"/><path d="M119 8.5 C 124 44, 129 52.5, 134 56.75" stroke="#1f4d24" stroke-width="1.3" fill="none" opacity="0.5"/>
    <path d="M10 -6 C 50 -60, 110 -70, 140 -25" stroke="#fff" stroke-width="6" fill="none" opacity="0.08" filter="url(#soft)"/>
  </g>
    <circle cx="350" cy="410" r="14" fill="url(#purple)"/><circle cx="520" cy="300" r="12" fill="url(#purple)"/><circle cx="385" cy="380" r="8" fill="url(#purple)"/><circle cx="640" cy="190" r="10" fill="url(#purple)"/>
  </g></g><rect width="800" height="600" fill="#1b2416" opacity="0.35"/><rect width="800" height="600" filter="url(#grain)" opacity="0.5"/></svg>